<svg id="Layer_1" data-name="Layer 1" xmlns="http://www.w3.org/2000/svg" viewBox="0 0 311.17 80"><defs><style>.cls-1{fill:#ff4438;}.cls-2{fill:#00af9a;}.cls-3{fill:#fff;}</style></defs><title>LOL-Stockholm</title><path d="M330.55,55.94v-.07l-.74-5.19h0a4.7,4.7,0,0,0-1.6-3.19,3.36,3.36,0,0,0-2.11-.75,3.15,3.15,0,0,0-.44,0l-.17,0-.16,0c-1.1.29-2.4.57-3.56.77l-.46.08v-.47c0-1.19,0-2.79,0-5.21,0-3.66.17-8.42.36-13.42V28l.3-.09a4,4,0,0,0,1.16-.5,4.21,4.21,0,0,0,1.6-1.79,4.58,4.58,0,0,0,.49-2.17,4.78,4.78,0,0,0-.58-2.16A4.33,4.33,0,0,0,320.83,19h0a4,4,0,0,0-2.12.61,4,4,0,0,0-1,.83l-.23.26-.3-.19a12.69,12.69,0,0,0-7-2h-.17l-15.2.74h0a12.05,12.05,0,0,0-8.05,3.33l-.52.5-.15-.7a3.68,3.68,0,0,0-3.5-3h0l-38-3h-.1a3.9,3.9,0,0,0-1.42.28l-.38.14-.15-.37c-1.34-3.48-4.12-5.64-7.27-5.64l-15.55.13a7,7,0,0,0-4.13,1.33l-.39.28-.21-.43a4.24,4.24,0,0,0-4-2.27l-9,.08a4.47,4.47,0,0,0-3.27,1.35,3.56,3.56,0,0,0-1,2.55l.64,7.48-.71-.48a8.76,8.76,0,0,0-5.11-1.61l-14.67.12a12,12,0,0,0-7.88,3.15l-.44.4-.21-.56c-1.58-4.12-6.34-6.79-12.14-6.79h0l-35.88-2.1h-.08a3.33,3.33,0,0,0-2.4,1.08,4.83,4.83,0,0,0-1.19,3.41l.16,7c0,.18,0,.38,0,.6l0,.4-.4,0-8.37.87H109a14.12,14.12,0,0,0-7.54,2.1l-.63.42v-.75c0-5.1-.09-8.72-.09-8.73v-.05c-.06-1.75-1.39-3.55-4.24-3.62h0l-7.38-.55H89a4.88,4.88,0,0,0-1.17.15l-.49.12v-.51c0-4-.08-6.53-.08-6.53,0-1.77-1.44-3.68-4.39-3.68h-.34l-7.93,1.9H74.5a4.43,4.43,0,0,0-2.79,1.27,3.46,3.46,0,0,0-1,2.34v.15l.36,7.47-.64-.38a17.15,17.15,0,0,0-8.6-2h-.11L48.23,14.87h-.12a16.43,16.43,0,0,0-9,2.3l-.71.48.08-.85c.7-7.1,1.25-12.7,1.29-13.07V3.57C39.71,1.5,37.94,0,35.56,0h-.42C29.75,1.62,21,4.37,20.36,4.92a3.49,3.49,0,0,0-.95,2.37.92.92,0,0,0,0,.16l1.19,49.68c.1,4.48,4.75,7.5,11.56,7.5h.17l39.49.86h0a4.57,4.57,0,0,0,3.21-1.36,3.51,3.51,0,0,0,1-2.3l0-.46.45.07a4.43,4.43,0,0,0,.81.07l6.17-.06a6.54,6.54,0,0,0,.71-.05l.43,0,0,.43c.13,2.23,2.29,3.56,4.3,3.56H89l7.76-.06a4.65,4.65,0,0,0,3.39-1.37,3.38,3.38,0,0,0,1-2.23l0-.82.63.53a10.85,10.85,0,0,0,7,2.6h.06l14.33-.81a12,12,0,0,0,6.58-2.06l.64-.45v.78c0,2.81-.07,4.66-.07,4.84v.07a4,4,0,0,0,4.19,3.72h.36L141,70a4.37,4.37,0,0,0,3.25-1.28,3.66,3.66,0,0,0,1-2.49V66c-.05-.39-.92-7.83-1.2-10.27l-.06-.49.5,0,14.34,1.25H159c3.23,0,6.54-.32,8.85-2.31l.48-.42.17.62c1.09,4,4.3,6.28,8.8,6.29h0l15.56,1.35H193a13.32,13.32,0,0,0,8.38-2.84l.36-.3.24.4a4.55,4.55,0,0,0,3.81,2l6.2-.05a5.05,5.05,0,0,0,2.34-.6l.29-.16.22.27a9.86,9.86,0,0,0,5.93,3.25l0,9c0,2.84,2.18,5.28,4.69,5.32L314,80h0a4.47,4.47,0,0,0,3.18-1.33c.91-.9,5.09-16.73,5.09-16.73v-.41c0-.24,0-.47,0-.69l4.94-.15h.24C329.49,60.41,330.83,58.37,330.55,55.94Z" transform="translate(-19.41)"/><path class="cls-1" d="M71.54,49.93,37.91,52c-3.25,0-5.64-1.45-5.7-3.5v-.06L36.65,3.65c0-.24-.5-.44-1-.45-5.7,1.71-12,3.75-13.06,4.36L23.73,57c.05,2.15,2.78,4.43,8.64,4.38l39.48.86a1.48,1.48,0,0,0,1-.37.32.32,0,0,0,.09-.16L72.63,50.4C72.63,50.28,72.23,49.93,71.54,49.93Z" transform="translate(-19.41)"/><path class="cls-1" d="M84.09,8.87c0-.24-.48-.5-1.23-.5L75.1,10.22H75a1.64,1.64,0,0,0-1.08.34.25.25,0,0,0-.08.18l2.22,47a1.41,1.41,0,0,0,1.2.53l6.16-.07a1.64,1.64,0,0,0,1.15-.37.22.22,0,0,0,.09-.15h0Z" transform="translate(-19.41)"/><path class="cls-1" d="M123.77,28.47h-.08L109.23,30c-3.1,0-5.64.9-7.14,2.45a5.15,5.15,0,0,0-1.46,3.81l.06,2.59c0,.26.46.66,1,.66l5.41-.06A1.25,1.25,0,0,0,108,39a.43.43,0,0,0,.15-.29l0-1.07A3.51,3.51,0,0,1,109,35a5.24,5.24,0,0,1,3.87-1.27l2.3,0h.07c3,0,5,1.49,5.07,3.82l0,1.7a3.45,3.45,0,0,1-1,2.48,5.6,5.6,0,0,1-3.93,1.57l-5.85,0c-3.13,0-5.66.88-7.14,2.39A5.23,5.23,0,0,0,101,49.62l.11,4.28c.07,3.13,3.51,6.87,7.68,6.87h0L123.09,60a8.49,8.49,0,0,0,6.07-2.5,5.7,5.7,0,0,0,1.76-4.05h0L131.46,34C131.38,30.85,128.08,28.47,123.77,28.47ZM124.55,54a5.62,5.62,0,0,1-4,1.5l-3.39,0h0c-3,0-5.21-1.63-5.27-4v-.56a3.93,3.93,0,0,1,1-2.89A4.58,4.58,0,0,1,116.16,47h4.3c3.45,0,5,2,5.08,4v.57A3.47,3.47,0,0,1,124.55,54Z" transform="translate(-19.41)"/><path class="cls-1" d="M198,25.55a6.64,6.64,0,0,0-5.51-3.18l-14.61.13a8.8,8.8,0,0,0-6.34,2.82,10.18,10.18,0,0,0-3,7l.08,2.8c0,.3.48.75,1.11.75l3.67,0a1.39,1.39,0,0,0,1-.41.54.54,0,0,0,.18-.34l0-1.17a3.78,3.78,0,0,1,1-2.84,5.7,5.7,0,0,1,4.17-1.37l4.69,0c3.31,0,5.47,1.58,5.53,4.1l0,1.85a3.61,3.61,0,0,1-1.1,2.66,6,6,0,0,1-4.24,1.69l-6.33.06c-2.73,0-4.6.6-5.73,1.76s-1.5,2.69-1.44,5.06l.11,4.64c.09,4,2.18,6.07,6.2,6h0L193,58.84a9.82,9.82,0,0,0,7-2.63,5.24,5.24,0,0,0,1.58-3.78l-1.6-21A11.51,11.51,0,0,0,198,25.55ZM193,52.25a3.89,3.89,0,0,1-2.9,1l-3.66,0h-.08c-3.27,0-5.58-1.74-5.65-4.24v-.63a3.73,3.73,0,0,1,1.07-2.73A6.21,6.21,0,0,1,186.27,44L190,44h.08c3.69,0,3.76,2.36,3.81,4.25v.62A4.57,4.57,0,0,1,193,52.25Z" transform="translate(-19.41)"/><path class="cls-1" d="M235.21,14h0l-15.49.13a4,4,0,0,0-2.94,1.24c-1.21,1.26-1.85,3.37-1.79,5.94l.25,10.27c.1,4.34,2.09,7.13,5.07,7.11l14.07-.13a4.49,4.49,0,0,0,3.14-1.47,7.21,7.21,0,0,0,1.9-5.14v-.05l.77-11.31C240.06,16.84,237.89,14,235.21,14ZM231.1,28.18a5,5,0,0,1-3.25,1.5l-4,0h0c-1.76,0-2.89-1.47-2.95-3.84l-.05-2.71a4,4,0,0,1,.93-3,2.59,2.59,0,0,1,1.86-.78l5.4-.05h0c1.69,0,2.95,1.64,3,3.91l0,2.52A3.3,3.3,0,0,1,231.1,28.18Z" transform="translate(-19.41)"/><path class="cls-1" d="M283.63,49.81a.58.58,0,0,0-.2-.35,1.76,1.76,0,0,0-1.08-.45h0l-17.63.15c-1.56,0-2.27-.84-2.43-1.58a2.13,2.13,0,0,1,1.4-2.28l17.64-8.4a3.56,3.56,0,0,0,1.92-3.59h0l-.24-10c0-.81-.43-.81-.65-.8h0l-37.87-2.95a1,1,0,0,0-1,.81v.07l-1.39,10.82a1.08,1.08,0,0,0,1,.79l29.46-.26a2,2,0,0,1,2.2,1.33c.15.62-.11,1.49-1.29,2.06l0,0L254.07,43c-1.35.62-1.77,1.42-1.73,3.27l.82,11.2a1.09,1.09,0,0,0,1,.88h0l28.39-.25a1.61,1.61,0,0,0,1-.49.65.65,0,0,0,.22-.39Z" transform="translate(-19.41)"/><path class="cls-2" d="M61.66,19.15h0L48.11,18.08c-3.69,0-6.68,1-8.22,2.56a3.85,3.85,0,0,0-1.16,2.88v0L36.43,42.4c.09,3.47,1.89,5.1,6.2,5.61l19.77-2c4.43-.21,8.85-2.14,8.76-6l.18-15.65C71.26,21.18,67.47,19.1,61.66,19.15Zm3,18.32a2.92,2.92,0,0,1-.89,2.08,6.37,6.37,0,0,1-4.57,1.64l-2.57,0h-.1c-4.4,0-5.37-1.66-5.39-3.07l-.22-9a2.85,2.85,0,0,1,.81-2.1,6.3,6.3,0,0,1,4.55-1.45l4,0c3.24,0,5.28,1.3,5.32,3.45v0Z" transform="translate(-19.41)"/><path class="cls-2" d="M97.58,19.84c0-.24-.5-.51-1.29-.5h0L89,18.81a1.57,1.57,0,0,0-1,.35.22.22,0,0,0-.08.16l-.09,42.32a1.46,1.46,0,0,0,1.19.5h0l7.81-.08a1.71,1.71,0,0,0,1.16-.37.3.3,0,0,0,.09-.14h0Z" transform="translate(-19.41)"/><path class="cls-2" d="M210.86,13l-8.91.07a1.85,1.85,0,0,0-.88.24.53.53,0,0,0-.28.37l3.8,43.84c0,.18.53.62,1.2.62l6.15-.06a1.67,1.67,0,0,0,1.13-.39.39.39,0,0,0,.13-.23l-1-43.85C212.14,13.25,211.59,13,210.86,13Z" transform="translate(-19.41)"/><path class="cls-2" d="M239.2,40.8l-11.86.11c-4.11,0-7.27.89-8.68,2.35a2.4,2.4,0,0,0-.75,1.77v0l-1.38,11.82c.12,3.29,4.68,4.42,8.92,4.37l16-.13c3.22,0,8.64-.68,8.76-4.7l-1.37-11.57C248.1,42.08,244.94,40.76,239.2,40.8Zm2.31,13c-.2,2.4-2.72,2.43-4.95,2.45l-5.25,0h-.76c-1.42,0-2.47-.09-3.13-.74a2.28,2.28,0,0,1-.61-1.69v-.05l0-.06L228.16,48a1.69,1.69,0,0,1,.51-1.19c.94-1,2.89-1.2,4.36-1.21l3.54,0h.12c4.31,0,4.68,1.81,4.69,2.37l.13,5.79Z" transform="translate(-19.41)"/><path class="cls-2" d="M157,18.69h0l-35.8-2.1a.25.25,0,0,0-.18.09,1.68,1.68,0,0,0-.31,1.13l.17,7c0,.74.25,1.3.55,1.32l10.9-1.29A2,2,0,0,1,134,26l0,.11-.59,40.12c0,.34.51.62,1.1.61l6.44-.06a1.54,1.54,0,0,0,1-.31.4.4,0,0,0,.12-.29l-1.38-11.86a1.86,1.86,0,0,1,.55-1.33A3.93,3.93,0,0,1,144,52h0L159,53.31c2.66,0,5.58-.25,7.09-1.79a4.84,4.84,0,0,0,1.19-3.63l-.54-22.66C166.61,21.39,162.53,18.64,157,18.69Zm2.67,27.25a5.4,5.4,0,0,1-3.91,1.43l-3.68,0H152c-3.06,0-5.39-1.63-5.43-3.82l-.32-13.13a3.1,3.1,0,0,1,.93-2.26,6.25,6.25,0,0,1,4.43-1.61l3.67,0c3,0,5,1.49,5.06,3.77l.31,13.12A3.41,3.41,0,0,1,159.68,45.94Z" transform="translate(-19.41)"/><path class="cls-2" d="M327.44,56.33l-.74-5.25a1.62,1.62,0,0,0-.43-1.06.27.27,0,0,0-.21-.07c-2.43.63-6.59,1.56-7.45.69-.24-.26-.64-.67-.42-11.56.1-5.16.3-10.28.31-10.59-.1-3.93-3.76-6.85-8.5-6.81l-15.13.74a8.86,8.86,0,0,0-6.37,2.78,10.36,10.36,0,0,0-2.93,7.29l.06,3.12a1.13,1.13,0,0,0,1.11.89l5.33,0a1.35,1.35,0,0,0,.91-.4.78.78,0,0,0,.24-.49l0-1.51c0-1.55-.06-2.77.7-3.55a3.82,3.82,0,0,1,2.81-.84l4.69-.05h.05c3.26,0,5.42,1.77,5.49,4.53l0,2a2.2,2.2,0,0,1-.56,1.68c-.75.74-2,.71-3.56.68l-1.06,0h-.2l-6.35,0c-3.23,0-5.89,1-7.51,2.64a6.68,6.68,0,0,0-1.83,5l.12,5.17c.09,3.73,3.82,6.74,8.34,6.74h.08L310,58h.22l16.88-.5a.27.27,0,0,0,.18-.13A1.48,1.48,0,0,0,327.44,56.33Zm-16.07-4.66a5.84,5.84,0,0,1-4.21,1.62l-3.67,0h-.06c-3.29,0-5.61-1.91-5.67-4.67l0-.68A4.25,4.25,0,0,1,299,44.82a6,6,0,0,1,4.31-1.64l3.77,0c3.75,0,5.48,2.33,5.53,4.67l0,.68A4.31,4.31,0,0,1,311.37,51.67Z" transform="translate(-19.41)"/><path class="cls-2" d="M320.44,24.5l0-.82h.17a.31.31,0,0,1,.24.06,1.67,1.67,0,0,1,.31.44l.16.3h.36l-.23-.37a1.8,1.8,0,0,0-.27-.38.54.54,0,0,0-.16-.1.58.58,0,0,0,.38-.19.59.59,0,0,0,.13-.37.71.71,0,0,0-.09-.28.47.47,0,0,0-.24-.18,1.11,1.11,0,0,0-.46-.05h-.61l0,1.94Zm.3-1.68a.9.9,0,0,1,.29,0,.29.29,0,0,1,.12.1.27.27,0,0,1,.05.15.22.22,0,0,1-.09.21.48.48,0,0,1-.34.09h-.35l0-.6Z" transform="translate(-19.41)"/><path class="cls-2" d="M320.07,25.07a1.71,1.71,0,0,0,.83.23,1.51,1.51,0,0,0,.82-.24,1.56,1.56,0,0,0,.6-.67,2,2,0,0,0,.2-.9,2,2,0,0,0-.24-.89,1.68,1.68,0,0,0-1.46-.9,1.6,1.6,0,0,0-1.42.91,2.11,2.11,0,0,0-.2.91,2,2,0,0,0,.24.89A1.6,1.6,0,0,0,320.07,25.07Zm-.42-2.31a1.27,1.27,0,0,1,.5-.55,1.21,1.21,0,0,1,.67-.2,1.25,1.25,0,0,1,.69.18,1.34,1.34,0,0,1,.53.55,1.69,1.69,0,0,1,.21.75,1.79,1.79,0,0,1-.17.75,1.18,1.18,0,0,1-.5.56,1.28,1.28,0,0,1-.68.2,1.37,1.37,0,0,1-.7-.19,1.4,1.4,0,0,1-.53-.55,1.67,1.67,0,0,1-.19-.75A1.47,1.47,0,0,1,319.65,22.76Z" transform="translate(-19.41)"/><path class="cls-3" d="M233.51,65.75c0,.27-.63,2.06-1.13,2.06s-1.67-.88-2.78-.88q-.48,0-.48.24c0,.23.3.36,1.59.68,2,.5,3.16,1.13,3.16,3.11,0,2.34-1.79,3.24-4.19,3.24s-4-1-4-1.5c0-.38.81-2.13,1.34-2.13.15,0,.29.14.59.3a5.5,5.5,0,0,0,2.34.69c.57,0,.79-.09.79-.28s-.28-.16-1.23-.38c-2.46-.59-3.48-1.53-3.48-3.62,0-1.91,1.26-3,3.75-3S233.51,65.37,233.51,65.75Z" transform="translate(-19.41)"/><path class="cls-3" d="M242.61,64.44c.26,0,.39.62.39,1s-.13,1.27-.39,1.27h-2.29c-.07,0-.09,0-.09.08V73.6c0,.49-1,.49-1.52.49s-1.58,0-1.58-.49V66.82c0-.09,0-.11-.09-.11h-2.29c-.26,0-.39-1-.39-1.27s.13-1,.39-1Z" transform="translate(-19.41)"/><path class="cls-3" d="M243.56,69.23c0-3.32,1.77-5,4.83-5s4.82,1.63,4.82,5-1.77,4.94-4.82,4.94S243.56,72.56,243.56,69.23Zm3.14,0c0,1.44.27,2.54,1.69,2.54s1.69-.91,1.69-2.54c0-1.43-.25-2.57-1.69-2.57C247.15,66.64,246.7,67.46,246.7,69.21Z" transform="translate(-19.41)"/><path class="cls-3" d="M262.14,64.94c.45.26.73.53.73.72,0,.35-.9,1.76-1.52,1.76a3.62,3.62,0,0,0-2-.73c-1.42,0-1.7,1.09-1.7,2.54s.27,2.55,1.7,2.55,2.38-1,2.73-1,1,1.56,1,1.84c0,.88-2.59,1.55-3.83,1.55-2.93,0-4.74-1.63-4.74-5s1.76-4.93,4.88-4.93A5.16,5.16,0,0,1,262.14,64.94Z" transform="translate(-19.41)"/><path class="cls-3" d="M272.78,71.16a.93.93,0,0,1,.31.73v1.62c0,.27-.12.51-.63.51h-1.11c-.61,0-.85-.17-1-.43l-1.82-2.88c-.14-.26-.5-.33-.89-.33V73.6c0,.49-1,.49-1.51.49s-1.57,0-1.57-.49V64.85c0-.48,1.07-.48,1.57-.48s1.51,0,1.51.48v2.71a1,1,0,0,0,.92-.39l1.54-2.29c.21-.32.35-.47,1-.47h1.12c.54,0,.64.25.64.51v1.27a1.26,1.26,0,0,1-.49,1.23l-1.63,1.21a.3.3,0,0,0-.1.17.27.27,0,0,0,.07.18Z" transform="translate(-19.41)"/><path class="cls-3" d="M283.54,73.6c0,.49-1,.49-1.52.49s-1.57,0-1.57-.49V70.2l-1.33.35-.12,0a.35.35,0,0,1-.13,0l-1.31-.35v3.4c0,.49-1,.49-1.5.49s-1.58,0-1.58-.49V64.85c0-.48,1.08-.48,1.58-.48s1.5,0,1.5.48v3l1.37-.37h.24l1.28.37v-3c0-.48,1.08-.48,1.57-.48s1.52,0,1.52.48Z" transform="translate(-19.41)"/><path class="cls-3" d="M285.06,69.23c0-3.32,1.77-5,4.83-5s4.82,1.63,4.82,5-1.77,4.94-4.82,4.94S285.06,72.56,285.06,69.23Zm3.15,0c0,1.44.26,2.54,1.68,2.54s1.69-.91,1.69-2.54c0-1.43-.25-2.57-1.69-2.57C288.65,66.64,288.21,67.46,288.21,69.21Z" transform="translate(-19.41)"/><path class="cls-3" d="M299.34,71.62c0,.06.05.06.1.06H303c.25,0,.38.82.38,1.21S303.28,74,303,74h-6.17c-.15,0-.6,0-.6-.71V64.85c0-.48,1.07-.48,1.56-.48s1.52,0,1.52.48Z" transform="translate(-19.41)"/><path class="cls-3" d="M307.53,73.6c0,.49-.92.49-1.45.49s-1.5,0-1.5-.49V65.13c0-.71.33-.72,1.17-.72h1.54c.95,0,1.2.12,1.38.51l1.06,2.26a.18.18,0,0,0,.17.08c.05,0,.17,0,.19-.08l1.15-2.33c.16-.33.65-.44,1.31-.44h1.51c.83,0,1.17,0,1.17.72V73.6c0,.49-.91.49-1.46.49s-1.49,0-1.49-.49V68.94c0-.06-.11-.07-.17-.07s-.12,0-.14.07l-.55,1.65c-.16.34-.7.41-1.51.41s-1.32-.07-1.46-.35l-.61-1.71a.14.14,0,0,0-.14-.07c-.06,0-.17,0-.17.07Z" transform="translate(-19.41)"/></svg>